<?xml version="1.0" encoding="UTF-8"?>
<svg id="Layer_1" xmlns="http://www.w3.org/2000/svg" version="1.1" viewBox="0 0 240 55.96">
  <!-- Generator: Adobe Illustrator 30.0.0, SVG Export Plug-In . SVG Version: 2.1.1 Build 123)  -->
  <defs>
    <style>
      .st0 {
        fill: #231f20;
      }

      .st1 {
        fill: #00a551;
      }
    </style>
  </defs>
  <path class="st1" d="M24.76,9.63c1.78,0,5.32,4.4,6.78,5.65,2.58,2.22,5.47,3.24,8.86,3.42h35.68v-9.63H27.56c-2.44,0-5.39-4.09-7.19-5.65C18.59,1.87,15.16,0,12.76,0H0v42.41h57.17c2.21,0,5.5,4.34,7.19,5.79,1.73,1.5,5.17,3.28,7.48,3.28h4.27v-9.62h-16.26c-1.8,0-5.31-4.39-6.78-5.65-2.52-2.18-5.38-3.24-8.73-3.42H9.63v-7.11h30.36c2.62,0,5.43,4.01,7.33,5.65,1.54,1.34,5.14,3.42,7.19,3.42h21.57v-9.62h-33.16c-1.78,0-5.38-4.47-6.85-5.72-2.57-2.22-5.56-3.18-8.93-3.35-5.31-.27-11.55-.14-16.92,0-.23,0-.41.05-.62.15v-6.56h15.16v-.03Z"/>
  <g>
    <path class="st0" d="M87.5,9.02h13.33v3.09h-9.66v4.06h8.46v3.02h-8.46v4.9h9.74v3.07h-13.42s0-18.14,0-18.14Z"/>
    <path class="st0" d="M103.98,9.02h3.46v18.14h-3.46V9.02Z"/>
    <path class="st0" d="M110.09,20.64c0-3.86,2.61-6.85,6.42-6.85,4.18,0,6.42,3.2,6.42,7.85h-9.44c.25,2,1.37,3.25,3.32,3.25,1.34,0,2.13-.6,2.51-1.61h3.4c-.48,2.3-2.54,4.27-5.89,4.27-4.31,0-6.75-3.02-6.75-6.9h0ZM113.54,19.25h5.78c-.1-1.65-1.19-2.78-2.76-2.78-1.82,0-2.72,1.08-3.02,2.78Z"/>
    <path class="st0" d="M124.71,22.96h3.2c.23,1.5,1.29,2.15,2.84,2.15s2.39-.58,2.39-1.5c0-1.23-1.65-1.37-3.42-1.71-2.33-.47-4.62-1.08-4.62-3.92s2.33-4.16,5.3-4.16c3.43,0,5.34,1.7,5.58,4.31h-3.11c-.15-1.4-1.04-1.91-2.51-1.91-1.34,0-2.24.51-2.24,1.45,0,1.12,1.73,1.22,3.58,1.61,2.18.47,4.6,1.07,4.6,4.12,0,2.61-2.24,4.18-5.47,4.18-3.79,0-5.89-1.82-6.09-4.6h0v-.03Z"/>
    <path class="st0" d="M138.84,9.02h3.46v3.09h-3.46v-3.09ZM138.84,14.15h3.46v13.01h-3.46v-13.01Z"/>
    <path class="st0" d="M148.91,15.92h.08c.89-1.39,2.09-2.13,3.86-2.13,2.69,0,4.49,2.03,4.49,4.87v8.51h-3.46v-7.98c0-1.39-.81-2.39-2.26-2.39s-2.63,1.22-2.63,2.99v7.38h-3.46v-13.01h3.37v1.78h0v-.03Z"/>
    <path class="st0" d="M160.47,14.15h3.32v1.76h.08c.71-1.19,1.98-2.1,3.79-2.1,1.65,0,2.98.91,3.59,2.28h.05c.89-1.43,2.26-2.28,3.91-2.28,2.74,0,4.29,1.78,4.29,4.62v8.75h-3.46v-8.18c0-1.47-.74-2.24-2-2.24-1.45,0-2.33,1.12-2.33,2.84v7.56h-3.46v-8.18c0-1.47-.73-2.24-2-2.24-1.39,0-2.33,1.12-2.33,2.84v7.56h-3.46v-13.01h-.01.01Z"/>
    <path class="st0" d="M182,20.66c0-3.88,2.77-6.87,6.8-6.87s6.8,2.99,6.8,6.87-2.77,6.87-6.8,6.87-6.8-2.99-6.8-6.87ZM192.09,20.66c0-2.54-1.19-4.27-3.31-4.27s-3.31,1.73-3.31,4.27,1.17,4.24,3.31,4.24,3.31-1.7,3.31-4.24Z"/>
    <path class="st0" d="M197.86,27.54h3.42c.27.81,1.02,1.45,2.61,1.45,1.95,0,2.89-.95,2.89-2.72v-1.43h-.08c-.75.86-1.76,1.52-3.4,1.52-2.89,0-5.73-2.28-5.73-6.21s2.33-6.37,5.62-6.37c1.62,0,2.83.63,3.59,1.73h.05v-1.37h3.32v12.02c0,1.82-.58,3.07-1.55,3.96-1.08,1.02-2.77,1.47-4.69,1.47-3.55,0-5.73-1.52-6.09-4.06h.04ZM206.96,20.07c0-1.91-1.02-3.53-3.09-3.53-1.76,0-2.92,1.37-2.92,3.55s1.17,3.5,2.94,3.5c2.18,0,3.07-1.61,3.07-3.53h0Z"/>
    <path class="st0" d="M221.64,27.15v-1.52h-.08c-.89,1.19-1.91,1.88-3.73,1.88-2.89,0-4.53-1.85-4.53-4.69v-8.68h3.42v8.09c0,1.52.69,2.36,2.15,2.36,1.62,0,2.61-1.22,2.61-2.94v-7.5h3.46v13.01h-3.32.03Z"/>
    <path class="st0" d="M231.58,15.92h.08c.89-1.39,2.09-2.13,3.86-2.13,2.69,0,4.49,2.03,4.49,4.87v8.51h-3.46v-7.98c0-1.39-.81-2.39-2.26-2.39s-2.63,1.22-2.63,2.99v7.38h-3.46v-13.01h3.37v1.78h0v-.03Z"/>
    <path class="st0" d="M87.5,33.4h13.33v3.09h-9.66v4.06h8.46v3.02h-8.46v4.9h9.74v3.07h-13.42v-18.14Z"/>
    <path class="st0" d="M103.32,51.92h3.42c.27.81,1.02,1.45,2.61,1.45,1.95,0,2.89-.95,2.89-2.72v-1.43h-.08c-.75.86-1.76,1.52-3.4,1.52-2.89,0-5.73-2.28-5.73-6.21s2.33-6.37,5.62-6.37c1.62,0,2.83.63,3.59,1.73h.05v-1.37h3.32v12.02c0,1.82-.58,3.07-1.55,3.96-1.08,1.02-2.76,1.47-4.69,1.47-3.55,0-5.73-1.52-6.09-4.06h.04ZM112.43,44.47c0-1.91-1.02-3.53-3.09-3.53-1.76,0-2.92,1.37-2.92,3.55s1.17,3.5,2.94,3.5c2.18,0,3.07-1.61,3.07-3.53Z"/>
    <path class="st0" d="M117.87,38.53h3.42l1.56,6.04c.27,1.07.58,2.44.58,2.44h.05s.27-1.39.56-2.46l1.62-6.01h2.94l1.7,6.01c.27,1.08.6,2.46.6,2.46h.05s.3-1.37.58-2.44l1.65-6.04h3.35l-3.88,13.01h-3.14l-1.73-6.39c-.27-1.04-.58-2.26-.58-2.26h-.05s-.33,1.22-.6,2.26l-1.78,6.39h-3.11l-3.81-13.01h.04Z"/>
    <path class="st0" d="M147,51.53v-1.52h-.08c-.89,1.19-1.91,1.88-3.73,1.88-2.89,0-4.53-1.85-4.53-4.69v-8.68h3.42v8.09c0,1.52.69,2.36,2.15,2.36,1.62,0,2.61-1.22,2.61-2.94v-7.5h3.46v13.01h-3.32.03Z"/>
    <path class="st0" d="M161.36,50.09h-.05c-.66.99-1.61,1.76-3.83,1.76-2.66,0-4.54-1.39-4.54-3.98,0-2.87,2.33-3.79,5.23-4.18,2.15-.3,3.14-.48,3.14-1.47s-.74-1.55-2.18-1.55c-1.62,0-2.41.58-2.51,1.82h-3.07c.1-2.28,1.8-4.29,5.61-4.29s5.47,1.76,5.47,4.79v6.63c0,.99.15,1.56.47,1.8v.12h-3.32c-.21-.25-.33-.86-.41-1.45h0ZM161.39,46.94v-1.95c-.6.36-1.55.56-2.41.75-1.8.41-2.69.81-2.69,2.03s.81,1.65,2.03,1.65c1.98,0,3.07-1.22,3.07-2.48h0Z"/>
    <path class="st0" d="M166.81,38.53h1.8v-4.06h3.37v4.06h2.24v2.28h-2.24v6.9c0,.96.54,1.29,1.29,1.29.43,0,1.02-.01,1.02-.01v2.54s-.8.05-2.15.05c-1.67,0-3.53-.66-3.53-3.11v-7.63h-1.8v-2.28h.01v-.03Z"/>
    <path class="st0" d="M185.23,51.53v-1.52h-.08c-.89,1.19-1.91,1.88-3.73,1.88-2.89,0-4.53-1.85-4.53-4.69v-8.68h3.42v8.09c0,1.52.69,2.36,2.15,2.36,1.62,0,2.61-1.22,2.61-2.94v-7.5h3.46v13.01h-3.32.03Z"/>
  </g>
</svg>