<?xml version="1.0" encoding="UTF-8"?>
<svg id="Layer_1" xmlns="http://www.w3.org/2000/svg" version="1.1" viewBox="0 0 240 55.96">
  <!-- Generator: Adobe Illustrator 30.0.0, SVG Export Plug-In . SVG Version: 2.1.1 Build 123)  -->
  <defs>
    <style>
      .st0 {
        fill: #231f20;
      }

      .st1 {
        fill: #00aeef;
      }
    </style>
  </defs>
  <g>
    <g>
      <path class="st0" d="M64.51,13.32h6.51v1.82h-4.14v2.27h3.85v1.81h-3.85v2.44h4.24v1.84h-6.61v-10.18Z"/>
      <path class="st0" d="M72.89,12.47h2.3v11.03h-2.3v-11.03Z"/>
      <path class="st0" d="M76.71,19.71c0-2.32,1.59-3.94,3.97-3.94,2.23,0,3.49,1.31,3.49,4.05,0,.12-.01.44-.03.54h-5.15c.06.99.9,1.68,2.27,1.68.8,0,1.56-.19,2.26-.58l.04,1.72c-.64.32-1.56.51-2.57.51-2.57,0-4.29-1.46-4.29-3.98h.01ZM82.09,18.94c0-1.12-.57-1.62-1.47-1.62-.83,0-1.53.55-1.65,1.62h3.12Z"/>
      <path class="st0" d="M85.3,23.28l.12-1.72c.82.38,1.63.54,2.32.54.61,0,1.14-.25,1.14-.71s-.23-.61-1.46-.98c-1.53-.44-2.16-1.01-2.16-2.23,0-1.47,1.21-2.41,3.17-2.41.89,0,1.63.12,2.26.38l-.18,1.63c-.7-.32-1.31-.47-1.95-.47s-1.09.26-1.09.71c0,.42.25.58,1.39.89,1.28.35,2.28.82,2.28,2.29,0,1.59-1.31,2.47-3.3,2.47-.79,0-1.71-.12-2.52-.39h-.02Z"/>
      <path class="st0" d="M92.57,12.78h2.3v1.91h-2.3v-1.91ZM92.57,15.96h2.3v7.54h-2.3v-7.54Z"/>
      <path class="st0" d="M96.82,18.35c0-.69-.01-1.49-.07-2.39h2.16c.03.32.06.89.06,1.28h.03c.55-.88,1.5-1.47,2.58-1.47,1.92,0,2.82,1.22,2.82,3.27v4.46h-2.28v-3.6c0-1.43-.17-2.29-1.28-2.29-.67,0-1.15.35-1.43.87-.22.44-.31,1.04-.31,1.69v3.33h-2.28s0-5.15,0-5.15Z"/>
      <path class="st0" d="M106.25,18.35c0-.67-.01-1.49-.07-2.39h2.12c.03.31.04.9.04,1.3h.03c.54-.95,1.47-1.49,2.52-1.49,1.14,0,1.97.52,2.33,1.53.55-.99,1.58-1.53,2.67-1.53,1.81,0,2.6,1.3,2.6,3.27v4.46h-2.29v-3.88c0-1.36-.35-2.01-1.15-2.01-1.11,0-1.53,1.11-1.53,2.41v3.49h-2.29v-3.69c0-1.3-.2-2.2-1.15-2.2-1.05,0-1.53,1.08-1.53,2.38v3.52h-2.29v-5.17Z"/>
      <path class="st0" d="M119.91,19.75c0-2.45,1.65-3.98,4.21-3.98s4.13,1.56,4.13,3.98-1.68,3.94-4.17,3.94-4.17-1.57-4.17-3.94ZM125.87,19.72c0-1.44-.7-2.33-1.79-2.33s-1.78.92-1.78,2.33.71,2.32,1.78,2.32,1.79-.9,1.79-2.32Z"/>
      <path class="st0" d="M129.98,26.24l.16-1.87c.93.48,1.84.7,2.68.7,1.31,0,2.25-.58,2.25-2.22,0-.2,0-.45.03-.73h-.03c-.51.82-1.33,1.36-2.47,1.36-2,0-3.31-1.52-3.31-3.79s1.39-3.92,3.4-3.92c1.18,0,1.94.48,2.47,1.36h.03c-.03-.47-.03-.79-.03-1.17h2.13v6.87c0,2.54-1.52,3.91-4.26,3.91-1.02,0-2.07-.15-3.05-.5ZM135.03,19.64c0-1.22-.71-2.13-1.76-2.13-.96,0-1.63.9-1.63,2.13s.67,2.1,1.66,2.1,1.74-.9,1.74-2.1h-.01Z"/>
      <path class="st0" d="M139.13,20.8v-4.84h2.27v4.03c0,1.15.32,1.82,1.3,1.82s1.66-.93,1.66-2.17v-3.68h2.3v5.31c0,.79,0,1.6.07,2.23h-2.13c-.03-.31-.06-.79-.06-1.28h-.03c-.52.87-1.44,1.47-2.71,1.47-1.62,0-2.68-1.15-2.68-2.89h0Z"/>
      <path class="st0" d="M148.62,18.35c0-.69,0-1.49-.07-2.39h2.16c.03.32.06.89.06,1.28h.03c.55-.88,1.5-1.47,2.58-1.47,1.92,0,2.82,1.22,2.82,3.27v4.46h-2.28v-3.6c0-1.43-.17-2.29-1.28-2.29-.67,0-1.15.35-1.43.87-.22.44-.31,1.04-.31,1.69v3.33h-2.28v-5.15h0Z"/>
      <path class="st0" d="M161.4,20.72c0-1.42.87-2.26,2.38-2.87-.8-.79-1.2-1.49-1.2-2.29,0-1.6,1.46-2.36,3.27-2.36,1.69,0,3.08.73,3.08,2.35,0,1.3-.73,2.03-2.26,2.68l1.9,1.94c.44-.58.66-1.4.67-2.23h2.03c-.07,1.34-.67,2.58-1.44,3.47l2,2.1h-2.7l-.8-.86c-.89.71-1.9,1.02-3.17,1.02-2.23,0-3.75-1.12-3.75-2.95h-.01ZM167.16,21.47l-2.3-2.42c-.9.35-1.17.89-1.17,1.52,0,.9.83,1.44,1.76,1.44.66,0,1.24-.15,1.71-.54ZM166.97,15.62c0-.63-.5-.95-1.15-.95s-1.12.35-1.12.93c0,.42.23.89.95,1.53.89-.39,1.33-.86,1.33-1.52h-.01Z"/>
      <path class="st0" d="M176.53,13.32h6.51v1.82h-4.14v2.27h3.85v1.81h-3.85v2.44h4.24v1.84h-6.61v-10.18Z"/>
      <path class="st0" d="M185.13,26.24l.16-1.87c.93.48,1.84.7,2.68.7,1.31,0,2.25-.58,2.25-2.22,0-.2,0-.45.03-.73h-.03c-.51.82-1.33,1.36-2.47,1.36-2,0-3.31-1.52-3.31-3.79s1.39-3.92,3.4-3.92c1.18,0,1.94.48,2.47,1.36h.03c-.03-.47-.03-.79-.03-1.17h2.13v6.87c0,2.54-1.52,3.91-4.26,3.91-1.02,0-2.07-.15-3.05-.5ZM190.17,19.64c0-1.22-.71-2.13-1.76-2.13-.96,0-1.63.9-1.63,2.13s.67,2.1,1.66,2.1,1.73-.9,1.73-2.1Z"/>
      <path class="st0" d="M193.58,15.96h2.42l.98,3.92c.12.47.31,1.37.39,1.87h.03c.09-.5.32-1.44.42-1.85l1.01-3.94h2.79l1.03,3.92c.12.47.32,1.37.41,1.87h.03c.09-.5.29-1.43.39-1.85l.96-3.94h2.29l-2.28,7.54h-2.86l-1.04-4.1c-.12-.5-.28-1.27-.36-1.78h-.03c-.1.51-.26,1.28-.39,1.78l-1.06,4.1h-2.86l-2.28-7.54h.01Z"/>
      <path class="st0" d="M207.8,20.8v-4.84h2.28v4.03c0,1.15.32,1.82,1.3,1.82s1.66-.93,1.66-2.17v-3.68h2.3v5.31c0,.79,0,1.6.07,2.23h-2.13c-.03-.31-.06-.79-.06-1.28h-.03c-.53.87-1.44,1.47-2.71,1.47-1.62,0-2.68-1.15-2.68-2.89h0Z"/>
      <path class="st0" d="M216.81,21.28c0-1.65,1.43-2.49,3.94-2.49.31,0,.71.01,1.08.04,0-1.05-.58-1.49-1.69-1.49-.8,0-1.71.26-2.39.64l-.07-1.66c.79-.38,1.92-.55,2.83-.55,2.43,0,3.47,1.15,3.47,3.14,0,.48-.03,1.28-.03,1.9,0,1.36.04,2.22.1,2.7h-2c-.03-.12-.04-.38-.04-.6,0-.16,0-.39.03-.66h-.03c-.49.85-1.36,1.4-2.58,1.4-1.5,0-2.61-.92-2.61-2.36h-.01ZM221.86,20.07c-.18-.01-.38-.03-.6-.03-1.44,0-2.25.32-2.25,1.12,0,.64.44.95,1.12.95.99,0,1.72-.67,1.72-2.04h.01Z"/>
      <path class="st0" d="M226.39,20.82v-3.24h-1.44v-1.62h1.52v-1.65l2.16-.73v2.38h1.81v1.62h-1.81v2.95c0,.79.16,1.4,1.09,1.4.26,0,.54-.03.77-.1l.06,1.6c-.44.12-.99.17-1.47.17-1.87,0-2.68-.85-2.68-2.79h-.01Z"/>
      <path class="st0" d="M231.73,20.8v-4.84h2.28v4.03c0,1.15.32,1.82,1.3,1.82s1.66-.93,1.66-2.17v-3.68h2.3v5.31c0,.79,0,1.6.07,2.23h-2.13c-.03-.31-.06-.79-.06-1.28h-.03c-.53.87-1.44,1.47-2.71,1.47-1.62,0-2.68-1.15-2.68-2.89h0Z"/>
    </g>
    <g>
      <path class="st0" d="M64.12,38.29c0-1.49,1.35-2.34,3.77-2.34.3,0,.69,0,1.01.04v-.06c0-1.21-.61-1.83-1.83-1.83-.73,0-1.51.28-2.08.69l-.08-1.18c.68-.41,1.55-.6,2.39-.6,2.1,0,2.89,1.21,2.89,2.84,0,.91-.03,2.04-.03,2.34,0,.79.03,1.65.08,2.17h-1.2c-.01-.11-.03-.38-.03-.59,0-.18.01-.44.03-.63h-.03c-.49.86-1.28,1.32-2.39,1.32-1.52,0-2.51-.85-2.51-2.17h.01ZM68.7,38.36c.15-.32.23-.79.23-1.42-.16,0-.41-.03-.73-.03-1.77,0-2.65.42-2.65,1.38,0,.7.55,1.13,1.37,1.13s1.48-.41,1.79-1.06h-.01Z"/>
      <path class="st0" d="M73.09,37.8v-3.52h-1.65v-1.06h1.65v-1.69l1.32-.45v2.14h1.93v1.06h-1.93v3.15c0,1.14.16,1.93,1.24,1.93.28,0,.52-.06.77-.17l.04,1.06c-.32.13-.73.2-1.14.2-1.82,0-2.24-1.1-2.24-2.65h.01Z"/>
      <path class="st0" d="M78.54,37.8v-3.52h-1.65v-1.06h1.65v-1.69l1.32-.45v2.14h1.93v1.06h-1.93v3.15c0,1.14.16,1.93,1.24,1.93.28,0,.52-.06.77-.17l.04,1.06c-.32.13-.73.2-1.14.2-1.82,0-2.24-1.1-2.24-2.65h.01Z"/>
      <path class="st0" d="M82.91,36.81c0-2.25,1.53-3.8,3.73-3.8s3.64,1.58,3.64,3.8-1.52,3.72-3.69,3.72-3.69-1.55-3.69-3.72h.01ZM88.89,36.81c0-1.6-.96-2.69-2.31-2.69s-2.25,1.1-2.25,2.69.93,2.6,2.29,2.6,2.27-1.04,2.27-2.6Z"/>
      <path class="st0" d="M92.14,35.31c0-.76-.01-1.52-.07-2.12h1.32c.04.37.06.84.06,1.21h.03c.41-.82,1.1-1.38,2.01-1.38.28,0,.51.03.69.1v1.25c-.17-.07-.41-.11-.72-.11-1.24,0-1.98,1.03-1.98,2.86v3.25h-1.34v-5.05h0Z"/>
      <path class="st0" d="M97.62,35.31c0-.76-.01-1.52-.07-2.12h1.31c.03.31.06.77.06,1.15h.03c.53-.82,1.35-1.32,2.39-1.32,2.03,0,2.67,1.34,2.67,3.24v4.11h-1.34v-3.55c0-1.41-.14-2.69-1.66-2.69-.7,0-1.35.41-1.72,1.03-.23.39-.34.93-.34,1.77v3.43h-1.34v-5.05h.01Z"/>
      <path class="st0" d="M105.8,36.72c0-2.27,1.38-3.7,3.42-3.7,1.89,0,3.08,1.14,3.08,3.56,0,.14-.01.37-.03.52h-5.12c.06,1.45,1.04,2.31,2.49,2.31.83,0,1.45-.2,2.1-.53l.04,1.22c-.65.3-1.37.44-2.22.44-2.39,0-3.76-1.45-3.76-3.81h0ZM110.99,36.07c0-1.38-.76-2.04-1.82-2.04s-1.89.76-2,2.04h3.82Z"/>
      <path class="st0" d="M113.53,43.37l.08-1.06c.2.06.41.1.63.1.77,0,1.1-.41,1.56-1.75l-2.72-7.49h1.45l1.45,4.35c.15.45.39,1.25.52,1.75h.03c.14-.49.39-1.32.54-1.75l1.46-4.35h1.35l-2.56,7.11c-.89,2.44-1.52,3.2-2.98,3.2-.23,0-.54-.03-.82-.11h.01Z"/>
      <path class="st0" d="M120.53,40.18l.1-1.2c.55.31,1.15.46,1.75.46.77,0,1.35-.37,1.35-.99,0-.56-.38-.83-1.49-1.37-1.2-.58-1.65-1.08-1.65-2,0-1.29,1.04-2.08,2.51-2.08.62,0,1.22.11,1.66.3l-.11,1.11c-.52-.25-1.01-.35-1.53-.35-.66,0-1.18.32-1.18.91s.41.83,1.32,1.22c1.34.58,1.81,1.2,1.81,2.14,0,1.44-1.08,2.18-2.59,2.18-.73,0-1.34-.11-1.94-.35v.02Z"/>
      <path class="st0" d="M129.68,38.29c0-1.49,1.35-2.34,3.77-2.34.3,0,.69,0,1.01.04v-.06c0-1.21-.61-1.83-1.83-1.83-.73,0-1.51.28-2.08.69l-.08-1.18c.68-.41,1.55-.6,2.39-.6,2.1,0,2.89,1.21,2.89,2.84,0,.91-.03,2.04-.03,2.34,0,.79.03,1.65.08,2.17h-1.2c0-.11-.03-.38-.03-.59,0-.18,0-.44.03-.63h-.03c-.49.86-1.28,1.32-2.39,1.32-1.52,0-2.51-.85-2.51-2.17h0ZM134.25,38.36c.15-.32.23-.79.23-1.42-.16,0-.41-.03-.73-.03-1.77,0-2.65.42-2.65,1.38,0,.7.55,1.13,1.37,1.13s1.48-.41,1.79-1.06h0Z"/>
      <path class="st0" d="M138.65,37.8v-3.52h-1.65v-1.06h1.65v-1.69l1.32-.45v2.14h1.93v1.06h-1.93v3.15c0,1.14.16,1.93,1.24,1.93.28,0,.52-.06.77-.17l.04,1.06c-.32.13-.73.2-1.14.2-1.82,0-2.24-1.1-2.24-2.65h0Z"/>
      <path class="st0" d="M146.95,29.72h1.35v10.64h-1.35v-10.64Z"/>
      <path class="st0" d="M150.19,38.29c0-1.49,1.35-2.34,3.77-2.34.3,0,.69,0,1.01.04v-.06c0-1.21-.6-1.83-1.83-1.83-.73,0-1.51.28-2.08.69l-.08-1.18c.68-.41,1.55-.6,2.39-.6,2.1,0,2.89,1.21,2.89,2.84,0,.91-.03,2.04-.03,2.34,0,.79.03,1.65.08,2.17h-1.2c0-.11-.03-.38-.03-.59,0-.18,0-.44.03-.63h-.03c-.49.86-1.28,1.32-2.39,1.32-1.52,0-2.51-.85-2.51-2.17h0ZM154.77,38.36c.15-.32.23-.79.23-1.42-.16,0-.41-.03-.73-.03-1.77,0-2.65.42-2.65,1.38,0,.7.55,1.13,1.37,1.13s1.48-.41,1.79-1.06h0Z"/>
      <path class="st0" d="M157.54,33.18h1.45l1.21,4.35c.13.45.31,1.28.42,1.76h.03c.11-.48.35-1.31.48-1.75l1.37-4.36h1.65l1.35,4.36c.14.45.35,1.27.46,1.75h.03c.1-.48.31-1.32.44-1.73l1.27-4.38h1.32l-2.32,7.18h-1.55l-1.42-4.62c-.08-.3-.32-1.17-.41-1.59h-.03c-.08.42-.32,1.27-.42,1.59l-1.44,4.62h-1.6l-2.28-7.18h0Z"/>
    </g>
  </g>
  <path class="st1" d="M55.96,55.96H0V0h55.96v55.96ZM13.66,38.57h13.75v-3.82h-8.83v-5.07h8.01v-3.76h-8.01v-4.73h8.62v-3.79h-13.53v21.18h-.01ZM42.3,17.39h-13.53v3.79h8.62v4.73h-8.01v3.76h8.01v5.07h-8.83v3.82h13.75v-21.18h0Z"/>
</svg>