<?xml version="1.0" encoding="UTF-8"?>
<svg id="Layer_1" xmlns="http://www.w3.org/2000/svg" version="1.1" viewBox="0 0 32 32">
  <!-- Generator: Adobe Illustrator 29.7.1, SVG Export Plug-In . SVG Version: 2.1.1 Build 8)  -->
  <defs>
    <style>
      .st0 {
        fill: #fff;
      }
    </style>
  </defs>
  <rect width="32" height="32" rx="4" ry="4"/>
  <g>
    <path class="st0" d="M23.27,26.21v-2.92h2.92v2.92h-2.92Z"/>
    <path class="st0" d="M13.98,26.12c-1.45,0-2.76-.26-3.92-.76-1.16-.52-2.11-1.25-2.86-2.19-.74-.96-1.21-2.1-1.41-3.42l3.86-.57c.27,1.12.83,1.98,1.68,2.59s1.82.91,2.9.91c.61,0,1.2-.09,1.76-.28.57-.19,1.04-.47,1.4-.84s.55-.83.55-1.37c0-.2-.03-.39-.09-.57-.05-.19-.15-.36-.28-.53-.14-.16-.33-.31-.58-.46-.24-.15-.55-.28-.93-.39l-5.07-1.49c-.38-.11-.82-.26-1.33-.46-.5-.2-.98-.48-1.45-.85-.47-.37-.86-.86-1.18-1.47-.31-.61-.46-1.39-.46-2.32,0-1.31.33-2.4.99-3.27.66-.87,1.55-1.52,2.65-1.94s2.33-.63,3.66-.63c1.35.01,2.55.25,3.61.69,1.06.44,1.95,1.09,2.66,1.94.71.84,1.23,1.87,1.55,3.09l-3.99.68c-.15-.63-.41-1.17-.8-1.6-.39-.44-.85-.77-1.4-.99-.53-.23-1.09-.35-1.68-.36-.58-.01-1.12.07-1.64.24-.5.17-.93.42-1.25.76-.31.34-.47.73-.47,1.2,0,.42.13.77.39,1.04.26.26.59.47.99.63s.8.3,1.22.41l3.39.93c.5.14,1.06.31,1.68.54.61.22,1.2.52,1.76.93.57.39,1.04.9,1.4,1.55.37.64.55,1.46.55,2.44,0,1.05-.22,1.97-.66,2.76-.44.78-1.02,1.42-1.76,1.94-.74.5-1.58.89-2.52,1.14-.93.26-1.9.38-2.89.38h-.01l-.02-.03Z"/>
  </g>
</svg>