<?xml version="1.0" encoding="UTF-8"?>
<svg id="Layer_1" xmlns="http://www.w3.org/2000/svg" version="1.1" viewBox="0 0 32 32">
  <!-- Generator: Adobe Illustrator 29.8.3, SVG Export Plug-In . SVG Version: 2.1.1 Build 3)  -->
  <defs>
    <style>
      .st0 {
        fill: #00a551;
      }
    </style>
  </defs>
  <path class="st0" d="M7.15,5.26c1.19,0,3.55,2.94,4.52,3.77,1.72,1.48,3.65,2.16,5.91,2.28h23.8v-6.42H9.01c-1.63,0-3.6-2.73-4.8-3.77C3.03.08.74-1.17-.86-1.17h-8.51v28.28H28.75c1.47,0,3.67,2.9,4.8,3.86,1.15.99,3.45,2.19,4.98,2.19h2.84v-6.42h-10.85c-1.2,0-3.54-2.93-4.52-3.77-1.69-1.45-3.59-2.16-5.82-2.28H-2.96v-4.74h20.25c1.75,0,3.62,2.67,4.89,3.77,1.03.89,3.44,2.28,4.8,2.28h14.39v-6.42h-22.12c-1.19,0-3.59-2.98-4.56-3.82-1.71-1.48-3.71-2.12-5.96-2.23-3.54-.18-7.7-.09-11.28,0-.16,0-.27.03-.41.1v-4.38H7.15Z"/>
</svg>